<svg width="70" height="70" viewBox="0 0 70 70" fill="none" xmlns="http://www.w3.org/2000/svg">
<path d="M29.3729 4.20703C31.3058 -1.01668 38.6942 -1.01667 40.6271 4.20703L46.4667 19.9884C47.0744 21.6307 48.3693 22.9256 50.0116 23.5333L65.793 29.3729C71.0167 31.3058 71.0167 38.6942 65.793 40.6271L50.0116 46.4667C48.3693 47.0744 47.0744 48.3693 46.4667 50.0116L40.6271 65.793C38.6942 71.0167 31.3058 71.0167 29.3729 65.793L23.5333 50.0116C22.9256 48.3693 21.6307 47.0744 19.9884 46.4667L4.20703 40.6271C-1.01668 38.6942 -1.01667 31.3058 4.20703 29.3729L19.9884 23.5333C21.6307 22.9256 22.9256 21.6307 23.5333 19.9884L29.3729 4.20703Z" fill="url(#paint0_linear_385_12150)"/>
<defs>
<linearGradient id="paint0_linear_385_12150" x1="16.411" y1="2.54794" x2="52.0137" y2="62.726" gradientUnits="userSpaceOnUse">
<stop stop-color="#4BD1FB"/>
<stop offset="1" stop-color="#DB27FC"/>
</linearGradient>
</defs>
</svg>
