<svg width="80" height="81" viewBox="12 0 56 60" fill="none" xmlns="http://www.w3.org/2000/svg">
<g filter="url(#filter0_ddd_459_29322)">
<g clip-path="url(#clip0_459_29322)">
<path d="M12 28.5C12 13.036 24.536 0.5 40 0.5C55.464 0.5 68 13.036 68 28.5C68 43.964 55.464 56.5 40 56.5C24.536 56.5 12 43.964 12 28.5Z" fill="url(#paint0_linear_459_29322)"/>
<rect width="56" height="56" transform="translate(12 0.5)" fill="url(#paint1_radial_459_29322)" fill-opacity="0.3"/>
<rect width="56" height="56" transform="translate(12 0.5)" fill="url(#paint2_radial_459_29322)" fill-opacity="0.05"/>
<rect width="56" height="56" transform="translate(12 0.5)" fill="url(#paint3_radial_459_29322)" fill-opacity="0.1"/>
<path d="M36.5683 16.193C37.4036 13.9357 40.5964 13.9357 41.4317 16.193L43.9553 23.0128C44.2179 23.7225 44.7775 24.2821 45.4872 24.5447L52.307 27.0683C54.5643 27.9036 54.5643 31.0964 52.307 31.9317L45.4872 34.4553C44.7775 34.7179 44.2179 35.2775 43.9553 35.9872L41.4317 42.807C40.5964 45.0643 37.4036 45.0643 36.5683 42.807L34.0447 35.9872C33.7821 35.2775 33.2225 34.7179 32.5128 34.4553L25.693 31.9317C23.4357 31.0964 23.4357 27.9036 25.693 27.0683L32.5128 24.5447C33.2225 24.2821 33.7821 23.7225 34.0447 23.0128L36.5683 16.193Z" fill="url(#paint4_linear_459_29322)"/>
<path d="M50.3515 38.9515C50.5743 38.3495 51.4257 38.3495 51.6485 38.9515L52.3214 40.7701C52.3914 40.9593 52.5407 41.1086 52.7299 41.1786L54.5485 41.8515C55.1505 42.0743 55.1505 42.9257 54.5485 43.1485L52.7299 43.8214C52.5407 43.8914 52.3914 44.0407 52.3214 44.2299L51.6485 46.0485C51.4257 46.6505 50.5743 46.6505 50.3515 46.0485L49.6786 44.2299C49.6086 44.0407 49.4593 43.8914 49.2701 43.8214L47.4515 43.1485C46.8495 42.9257 46.8495 42.0743 47.4515 41.8515L49.2701 41.1786C49.4593 41.1086 49.6086 40.9593 49.6786 40.7701L50.3515 38.9515Z" fill="url(#paint5_linear_459_29322)"/>
<path d="M49.3515 11.9515C49.5743 11.3495 50.4257 11.3495 50.6485 11.9515L51.3214 13.7701C51.3914 13.9593 51.5407 14.1086 51.7299 14.1786L53.5485 14.8515C54.1505 15.0743 54.1505 15.9257 53.5485 16.1485L51.7299 16.8214C51.5407 16.8914 51.3914 17.0407 51.3214 17.2299L50.6485 19.0485C50.4257 19.6505 49.5743 19.6505 49.3515 19.0485L48.6786 17.2299C48.6086 17.0407 48.4593 16.8914 48.2701 16.8214L46.4515 16.1485C45.8495 15.9257 45.8495 15.0743 46.4515 14.8515L48.2701 14.1786C48.4593 14.1086 48.6086 13.9593 48.6786 13.7701L49.3515 11.9515Z" fill="url(#paint6_linear_459_29322)"/>
<path d="M56.8002 14.6446C56.8002 19.3639 49.2786 16.3536 40.0002 16.3536C30.7218 16.3536 23.2002 19.3639 23.2002 14.6446C23.2002 9.92534 30.7218 6.09961 40.0002 6.09961C49.2786 6.09961 56.8002 9.92534 56.8002 14.6446Z" fill="url(#paint7_linear_459_29322)" fill-opacity="0.6"/>
</g>
</g>
<defs>
<filter id="filter0_ddd_459_29322" x="0" y="0.5" width="80" height="80" filterUnits="userSpaceOnUse" color-interpolation-filters="sRGB">
<feFlood flood-opacity="0" result="BackgroundImageFix"/>
<feColorMatrix in="SourceAlpha" type="matrix" values="0 0 0 0 0 0 0 0 0 0 0 0 0 0 0 0 0 0 127 0" result="hardAlpha"/>
<feMorphology radius="1" operator="erode" in="SourceAlpha" result="effect1_dropShadow_459_29322"/>
<feOffset dy="2"/>
<feGaussianBlur stdDeviation="1"/>
<feColorMatrix type="matrix" values="0 0 0 0 0.0392157 0 0 0 0 0.0496732 0 0 0 0 0.0705882 0 0 0 0.04 0"/>
<feBlend mode="normal" in2="BackgroundImageFix" result="effect1_dropShadow_459_29322"/>
<feColorMatrix in="SourceAlpha" type="matrix" values="0 0 0 0 0 0 0 0 0 0 0 0 0 0 0 0 0 0 127 0" result="hardAlpha"/>
<feMorphology radius="2" operator="erode" in="SourceAlpha" result="effect2_dropShadow_459_29322"/>
<feOffset dy="4"/>
<feGaussianBlur stdDeviation="3"/>
<feColorMatrix type="matrix" values="0 0 0 0 0.0392157 0 0 0 0 0.0496732 0 0 0 0 0.0705882 0 0 0 0.03 0"/>
<feBlend mode="normal" in2="effect1_dropShadow_459_29322" result="effect2_dropShadow_459_29322"/>
<feColorMatrix in="SourceAlpha" type="matrix" values="0 0 0 0 0 0 0 0 0 0 0 0 0 0 0 0 0 0 127 0" result="hardAlpha"/>
<feMorphology radius="4" operator="erode" in="SourceAlpha" result="effect3_dropShadow_459_29322"/>
<feOffset dy="12"/>
<feGaussianBlur stdDeviation="8"/>
<feColorMatrix type="matrix" values="0 0 0 0 0.0392157 0 0 0 0 0.0496732 0 0 0 0 0.0705882 0 0 0 0.08 0"/>
<feBlend mode="normal" in2="effect2_dropShadow_459_29322" result="effect3_dropShadow_459_29322"/>
<feBlend mode="normal" in="SourceGraphic" in2="effect3_dropShadow_459_29322" result="shape"/>
</filter>
<linearGradient id="paint0_linear_459_29322" x1="41.1667" y1="0.5" x2="40" y2="56.5" gradientUnits="userSpaceOnUse">
<stop stop-color="#66D7F9"/>
<stop offset="1" stop-color="#067596"/>
</linearGradient>
<radialGradient id="paint1_radial_459_29322" cx="0" cy="0" r="1" gradientUnits="userSpaceOnUse" gradientTransform="translate(28 28) rotate(90) scale(28)">
<stop offset="0.746599" stop-color="white" stop-opacity="0"/>
<stop offset="1" stop-color="white"/>
</radialGradient>
<radialGradient id="paint2_radial_459_29322" cx="0" cy="0" r="1" gradientUnits="userSpaceOnUse" gradientTransform="translate(28 16.1) rotate(90) scale(24.5)">
<stop stop-color="white"/>
<stop offset="1" stop-color="white" stop-opacity="0"/>
</radialGradient>
<radialGradient id="paint3_radial_459_29322" cx="0" cy="0" r="1" gradientUnits="userSpaceOnUse" gradientTransform="translate(28) rotate(90) scale(42)">
<stop stop-color="white" stop-opacity="0"/>
<stop offset="0.5" stop-color="white" stop-opacity="0"/>
<stop offset="0.99" stop-color="white"/>
<stop offset="1" stop-color="white" stop-opacity="0"/>
</radialGradient>
<linearGradient id="paint4_linear_459_29322" x1="39" y1="14.5" x2="39" y2="52.5" gradientUnits="userSpaceOnUse">
<stop stop-color="white"/>
<stop offset="1" stop-color="white" stop-opacity="0.5"/>
</linearGradient>
<linearGradient id="paint5_linear_459_29322" x1="51" y1="38.5" x2="51" y2="46.5" gradientUnits="userSpaceOnUse">
<stop stop-color="white"/>
<stop offset="1" stop-color="white" stop-opacity="0.7"/>
</linearGradient>
<linearGradient id="paint6_linear_459_29322" x1="50" y1="11.5" x2="50" y2="19.5" gradientUnits="userSpaceOnUse">
<stop stop-color="white"/>
<stop offset="1" stop-color="white" stop-opacity="0.7"/>
</linearGradient>
<linearGradient id="paint7_linear_459_29322" x1="40.0002" y1="6.09961" x2="40.0002" y2="17.2996" gradientUnits="userSpaceOnUse">
<stop stop-color="white"/>
<stop offset="1" stop-color="white" stop-opacity="0.1"/>
</linearGradient>
<clipPath id="clip0_459_29322">
<path d="M12 28.5C12 13.036 24.536 0.5 40 0.5C55.464 0.5 68 13.036 68 28.5C68 43.964 55.464 56.5 40 56.5C24.536 56.5 12 43.964 12 28.5Z" fill="white"/>
</clipPath>
</defs>
</svg>
