<svg width="19" height="19" viewBox="0 0 19 19" fill="none" xmlns="http://www.w3.org/2000/svg">
<path d="M9.49996 12.0906C10.9309 12.0906 12.0909 10.9306 12.0909 9.49971C12.0909 8.06878 10.9309 6.90878 9.49996 6.90878C8.06903 6.90878 6.90904 8.06878 6.90904 9.49971C6.90904 10.9306 8.06903 12.0906 9.49996 12.0906Z" stroke="#A4A7AE" stroke-width="1.66667" stroke-linecap="round" stroke-linejoin="round"/>
<path d="M15.3099 11.8551C15.2054 12.0919 15.1742 12.3546 15.2204 12.6093C15.2666 12.864 15.388 13.099 15.569 13.284L15.6161 13.3311C15.7621 13.477 15.8779 13.6501 15.9569 13.8408C16.036 14.0314 16.0766 14.2357 16.0766 14.4421C16.0766 14.6484 16.036 14.8528 15.9569 15.0434C15.8779 15.234 15.7621 15.4072 15.6161 15.553C15.4703 15.699 15.2971 15.8149 15.1065 15.8939C14.9158 15.9729 14.7115 16.0136 14.5051 16.0136C14.2988 16.0136 14.0945 15.9729 13.9038 15.8939C13.7132 15.8149 13.54 15.699 13.3942 15.553L13.3471 15.5059C13.162 15.3249 12.927 15.2035 12.6723 15.1573C12.4176 15.1112 12.155 15.1423 11.9182 15.2468C11.6859 15.3464 11.4879 15.5116 11.3484 15.7223C11.2089 15.9329 11.134 16.1797 11.133 16.4324V16.5659C11.133 16.9823 10.9676 17.3817 10.6731 17.6762C10.3786 17.9707 9.97923 18.1361 9.56277 18.1361C9.14631 18.1361 8.74691 17.9707 8.45243 17.6762C8.15795 17.3817 7.99251 16.9823 7.99251 16.5659V16.4952C7.98643 16.2353 7.90232 15.9833 7.7511 15.7719C7.59987 15.5604 7.38854 15.3994 7.14458 15.3096C6.90777 15.2051 6.64508 15.174 6.39039 15.2201C6.1357 15.2663 5.90068 15.3877 5.71564 15.5687L5.66854 15.6158C5.5227 15.7618 5.34952 15.8777 5.15889 15.9567C4.96827 16.0357 4.76394 16.0764 4.55758 16.0764C4.35122 16.0764 4.14689 16.0357 3.95627 15.9567C3.76564 15.8777 3.59246 15.7618 3.44663 15.6158C3.30063 15.47 3.18481 15.2968 3.10579 15.1062C3.02676 14.9156 2.98609 14.7112 2.98609 14.5049C2.98609 14.2985 3.02676 14.0942 3.10579 13.9036C3.18481 13.713 3.30063 13.5398 3.44663 13.3939L3.49373 13.3468C3.67473 13.1618 3.79615 12.9268 3.84233 12.6721C3.88851 12.4174 3.85734 12.1547 3.75282 11.9179C3.6533 11.6857 3.48805 11.4876 3.2774 11.3481C3.06676 11.2086 2.81993 11.1338 2.56728 11.1328H2.43381C2.01735 11.1328 1.61795 10.9673 1.32347 10.6729C1.02899 10.3784 0.863556 9.97897 0.863556 9.56252C0.863556 9.14606 1.02899 8.74666 1.32347 8.45218C1.61795 8.1577 2.01735 7.99226 2.43381 7.99226H2.50447C2.76435 7.98618 3.01638 7.90206 3.22781 7.75084C3.43924 7.59962 3.60029 7.38829 3.69001 7.14432C3.79453 6.90752 3.8257 6.64483 3.77952 6.39014C3.73334 6.13545 3.61192 5.90043 3.43092 5.71539L3.38382 5.66828C3.23782 5.52245 3.122 5.34927 3.04298 5.15864C2.96395 4.96802 2.92328 4.76368 2.92328 4.55733C2.92328 4.35097 2.96395 4.14664 3.04298 3.95601C3.122 3.76539 3.23782 3.59221 3.38382 3.44637C3.52965 3.30038 3.70283 3.18456 3.89346 3.10553C4.08408 3.02651 4.28841 2.98584 4.49477 2.98584C4.70113 2.98584 4.90546 3.02651 5.09608 3.10553C5.28671 3.18456 5.45989 3.30038 5.60573 3.44637L5.65283 3.49348C5.83787 3.67448 6.07289 3.7959 6.32758 3.84208C6.58227 3.88826 6.84496 3.85708 7.08177 3.75257H7.14458C7.37679 3.65305 7.57484 3.48779 7.71434 3.27715C7.85384 3.06651 7.9287 2.81967 7.9297 2.56703V2.43356C7.9297 2.0171 8.09514 1.6177 8.38962 1.32322C8.6841 1.02874 9.0835 0.863303 9.49996 0.863303C9.91642 0.863303 10.3158 1.02874 10.6103 1.32322C10.9048 1.6177 11.0702 2.0171 11.0702 2.43356V2.50422C11.0712 2.75686 11.1461 3.0037 11.2856 3.21434C11.4251 3.42498 11.6231 3.59024 11.8553 3.68976C12.0921 3.79427 12.3548 3.82545 12.6095 3.77927C12.8642 3.73309 13.0992 3.61167 13.2843 3.43067L13.3314 3.38356C13.4772 3.23757 13.6504 3.12175 13.841 3.04272C14.0316 2.9637 14.236 2.92303 14.4423 2.92303C14.6487 2.92303 14.853 2.9637 15.0437 3.04272C15.2343 3.12175 15.4075 3.23757 15.5533 3.38356C15.6993 3.5294 15.8151 3.70258 15.8941 3.8932C15.9732 4.08383 16.0138 4.28816 16.0138 4.49452C16.0138 4.70087 15.9732 4.90521 15.8941 5.09583C15.8151 5.28646 15.6993 5.45964 15.5533 5.60547L15.5062 5.65258C15.3252 5.83762 15.2038 6.07264 15.1576 6.32733C15.1114 6.58202 15.1426 6.84471 15.2471 7.08151V7.14432C15.3466 7.37654 15.5119 7.57459 15.7225 7.71408C15.9332 7.85358 16.18 7.92844 16.4326 7.92945H16.5661C16.9826 7.92945 17.382 8.09489 17.6764 8.38937C17.9709 8.68385 18.1364 9.08325 18.1364 9.49971C18.1364 9.91616 17.9709 10.3156 17.6764 10.61C17.382 10.9045 16.9826 11.07 16.5661 11.07H16.4954C16.2428 11.071 15.996 11.1458 15.7853 11.2853C15.5747 11.4248 15.4094 11.6229 15.3099 11.8551Z" stroke="#A4A7AE" stroke-width="1.66667" stroke-linecap="round" stroke-linejoin="round"/>
</svg>
