<svg width="25" height="25" viewBox="0 0 25 25" fill="none" xmlns="http://www.w3.org/2000/svg">
<path d="M15.6507 3.79403L14.0924 0.944053C13.7693 0.352809 13.1736 0 12.4999 0C11.8262 0 11.2305 0.352809 10.9074 0.944053L9.34912 3.79403L12.4999 4.71731L15.6507 3.79403Z" fill="#2879DB"/>
<path d="M21.2055 15.6512L24.0555 14.0929C24.6467 13.7698 24.9995 13.1741 24.9995 12.5004C24.9995 11.8267 24.6467 11.231 24.0555 10.9079L21.2055 9.34961L20.2822 12.5004L21.2055 15.6512Z" fill="#49A7A2"/>
<path d="M9.34863 21.2057L10.907 24.0557C11.2301 24.647 11.8258 24.9998 12.4994 24.9998C13.1731 24.9998 13.7689 24.647 14.0919 24.0557L15.6503 21.2057L12.4994 20.2832L9.34863 21.2065V21.2057Z" fill="#FFB200"/>
<path d="M3.79405 9.34863L0.944053 10.907C0.352809 11.2301 0 11.8258 0 12.4994C0 13.1731 0.352809 13.7689 0.944053 14.0919L3.79405 15.6503L4.7173 12.4994L3.79405 9.34863Z" fill="#FF55AE"/>
<path d="M20.8838 8.57338L21.7967 5.456C21.9586 4.90191 21.8546 4.32031 21.51 3.86053C21.1668 3.40225 20.6254 3.12891 20.0608 3.12891C19.8878 3.12891 19.714 3.15419 19.5446 3.20394L16.4272 4.11678L18.0027 6.99725L20.8838 8.57266V8.57338Z" fill="#278AB5"/>
<path d="M8.57157 4.11678L5.45416 3.20394C5.28482 3.15419 5.11103 3.12891 4.93797 3.12891C4.37344 3.12891 3.83197 3.40225 3.48882 3.86053C3.14419 4.32031 3.04019 4.90191 3.20213 5.456L4.11497 8.57338L6.99541 6.99797L8.57082 4.11753L8.57157 4.11678Z" fill="#9E77ED"/>
<path d="M16.4272 20.8843L19.5446 21.7972C19.714 21.847 19.8878 21.8722 20.0608 21.8722C20.6254 21.8722 21.1668 21.5989 21.51 21.1406C21.8546 20.6808 21.9594 20.0992 21.7967 19.5451L20.8838 16.4277L18.0034 18.0031L16.428 20.8836L16.4272 20.8843Z" fill="#38C172"/>
<path d="M4.1158 16.4277L3.20293 19.5451C3.04027 20.0992 3.14502 20.6808 3.48965 21.1406C3.8328 21.5989 4.37427 21.8722 4.93877 21.8722C5.11186 21.8722 5.28565 21.847 5.45499 21.7972L8.5724 20.8843L6.99699 18.0039L4.11655 16.4285L4.1158 16.4277Z" fill="#FF7832"/>
<path d="M17.2262 7.77305L15.6508 4.89258L12.5 5.81586C14.3458 5.81586 16.017 6.56383 17.227 7.77377L17.2262 7.77305Z" fill="#FFB200"/>
<path d="M12.4997 5.81485L9.34884 4.8916L7.77344 7.77204C8.98341 6.56207 10.6539 5.81413 12.5004 5.81413L12.4997 5.81485Z" fill="#FFB200"/>
<path d="M19.1842 12.4997L20.1075 9.34884L17.2271 7.77344C18.437 8.98341 19.185 10.6539 19.185 12.5004L19.1842 12.4997Z" fill="#FFB200"/>
<path d="M7.77302 7.77321L4.89258 9.34862L5.81583 12.4994C5.81583 10.6536 6.5638 8.98243 7.77377 7.77246L7.77302 7.77321Z" fill="#FFB200"/>
<path d="M6.33306 14.631C6.33084 14.6273 6.32934 14.6235 6.32712 14.6191C5.99809 13.9684 5.81981 13.2494 5.81537 12.52C5.81537 12.5082 5.81537 12.4962 5.81537 12.4844L4.89209 15.6367L7.77403 17.2128C7.77403 17.2128 6.54475 15.0469 6.33306 14.631Z" fill="#FFB200"/>
<path d="M18.6665 14.631C18.6688 14.6273 18.6702 14.6235 18.6725 14.6191C19.0015 13.9684 19.1798 13.2494 19.1842 12.52C19.1842 12.5082 19.1842 12.4962 19.1842 12.4844L20.1075 15.6367L17.2256 17.2128C17.2256 17.2128 18.4548 15.0469 18.6665 14.631Z" fill="#FFB200"/>
</svg>
